<?xml version="1.0" standalone="no"?>
<!DOCTYPE svg PUBLIC "-//W3C//DTD SVG 20010904//EN"
 "http://www.w3.org/TR/2001/REC-SVG-20010904/DTD/svg10.dtd">
<svg version="1.0" xmlns="http://www.w3.org/2000/svg"
 width="334.000000pt" height="334.000000pt" viewBox="0 0 334.000000 334.000000"
 preserveAspectRatio="xMidYMid meet">
<metadata>
Created by potrace 1.14, written by Peter Selinger 2001-2017
</metadata>
<g transform="translate(0.000000,334.000000) scale(0.100000,-0.100000)"
fill="#000000" stroke="none">
<path d="M1383 3123 c-22 -63 -34 -83 -50 -84 -10 0 -25 -2 -33 -3 -8 -2 -51
-6 -95 -10 -44 -4 -91 -9 -105 -10 -43 -6 -105 -16 -125 -20 -11 -2 -40 -7
-65 -10 -79 -10 -351 -82 -445 -117 l-90 -34 -3 -228 -2 -228 -83 3 -82 2 -7
-49 c-10 -81 -17 -128 -23 -165 -6 -38 -12 -83 -21 -147 -6 -41 -5 -42 23 -41
56 1 55 1 49 -49 -3 -27 -8 -57 -10 -68 -3 -11 -5 -30 -5 -42 -1 -12 -7 -27
-13 -32 -109 -88 -119 -107 -147 -273 -12 -69 -24 -136 -26 -148 -8 -42 -18
-135 -17 -156 7 -101 137 -205 312 -249 l66 -16 24 -57 c24 -55 84 -139 125
-175 56 -50 169 -112 350 -192 110 -49 237 -106 282 -127 46 -21 85 -38 87
-38 3 0 42 -18 88 -39 221 -103 265 -123 288 -128 17 -3 54 9 110 35 91 42
124 57 295 134 61 28 135 61 165 75 30 14 73 33 95 43 340 149 393 178 474
260 63 64 131 191 131 245 0 25 17 17 117 -55 53 -39 98 -69 100 -67 1 2 -8
35 -21 73 -13 38 -42 124 -64 191 -35 110 -38 122 -23 135 9 7 69 51 135 98
65 47 132 96 148 110 l30 26 -193 -1 c-107 -1 -200 1 -207 3 -26 9 -8 318 27
480 1 1 26 2 56 2 50 0 55 2 57 23 0 12 2 27 3 32 1 6 5 30 9 55 9 55 12 73
26 178 6 46 14 90 17 98 6 16 7 16 -119 16 l-88 0 -2 226 -3 226 -50 19 c-27
10 -59 23 -70 27 -32 13 -144 46 -215 64 -148 35 -356 70 -485 82 -106 9 -150
15 -156 22 -4 4 -12 24 -19 44 -6 21 -16 40 -21 43 -5 4 -24 -8 -41 -24 -64
-60 -113 -61 -176 -2 l-32 30 -35 -33 c-56 -55 -111 -52 -177 9 -32 30 -37 30
-45 8z"/>
<path d="M2914 854 c3 -9 6 -25 6 -37 0 -17 2 -19 9 -8 5 8 7 20 4 28 -3 7 0
13 6 13 6 0 11 5 11 10 0 6 -9 10 -21 10 -15 0 -19 -4 -15 -16z"/>
<path d="M2958 859 c-2 -8 -1 -25 3 -39 4 -14 7 -18 8 -9 1 16 31 23 31 7 0
-4 4 -8 10 -8 5 0 8 10 6 23 -3 12 -5 27 -6 32 0 6 -5 2 -11 -8 -10 -17 -12
-17 -23 -1 -10 13 -14 14 -18 3z"/>
</g>
</svg>
